HIERARCHY
ROOT Hips
{
	OFFSET 0.000000 83.214638 0.000000
	CHANNELS 6 Xposition Yposition Zposition Xrotation Yrotation Zrotation
	JOINT Pelvis
	{
		OFFSET 0.000000 0.000000 0.000000
		CHANNELS 3 Xrotation Yrotation Zrotation
		JOINT LeftUpLeg
		{
			OFFSET 8.479700 -4.795502 -0.379100
			CHANNELS 3 Xrotation Yrotation Zrotation
			JOINT LeftLeg
			{
				OFFSET 0.024144 -32.555107 0.112900
				CHANNELS 3 Xrotation Yrotation Zrotation
				JOINT LeftFoot
				{
					OFFSET -0.024144 -32.638630 -3.012600
					CHANNELS 3 Xrotation Yrotation Zrotation
					JOINT LeftToeBase
					{
						OFFSET 0.970200 -13.225400 11.864200
						CHANNELS 3 Xrotation Yrotation Zrotation
						End Site
						{
							OFFSET 0.000000 12.319262 0.000000
						}
					}
					JOINT LFootTongue
					{
						OFFSET 1.142400 -1.059800 6.665200
						CHANNELS 3 Xrotation Yrotation Zrotation
						End Site
						{
							OFFSET 0.000000 12.319262 0.000000
						}
					}
				}
				JOINT LeftPantLeg
				{
					OFFSET 0.918482 -16.533964 -2.284700
					CHANNELS 3 Xrotation Yrotation Zrotation
					End Site
					{
						OFFSET 0.350399 24.744368 0.000000
					}
				}
			}
		}
		JOINT RightUpLeg
		{
			OFFSET -8.479700 -4.795502 -0.379100
			CHANNELS 3 Xrotation Yrotation Zrotation
			JOINT RightLeg
			{
				OFFSET -0.023144 -32.555092 0.112900
				CHANNELS 3 Xrotation Yrotation Zrotation
				JOINT RightFoot
				{
					OFFSET 0.023144 -32.638641 -3.012700
					CHANNELS 3 Xrotation Yrotation Zrotation
					JOINT RightToeBase
					{
						OFFSET -0.970200 -13.225400 11.864200
						CHANNELS 3 Xrotation Yrotation Zrotation
						End Site
						{
							OFFSET 0.000000 12.319244 0.000000
						}
					}
					JOINT RFootTongue
					{
						OFFSET -1.142200 -1.059800 6.665200
						CHANNELS 3 Xrotation Yrotation Zrotation
						End Site
						{
							OFFSET 0.000000 12.319243 0.000000
						}
					}
				}
				JOINT RightPantLeg
				{
					OFFSET -0.919482 -16.533978 -2.284800
					CHANNELS 3 Xrotation Yrotation Zrotation
					End Site
					{
						OFFSET -0.350400 24.744419 0.000000
					}
				}
			}
		}
	}
	JOINT Spine
	{
		OFFSET 0.000000 7.722000 1.166200
		CHANNELS 3 Xrotation Yrotation Zrotation
		JOINT Spine1
		{
			OFFSET 0.000000 12.024101 0.248800
			CHANNELS 3 Xrotation Yrotation Zrotation
			JOINT Spine2
			{
				OFFSET 0.000000 11.502998 -0.491200
				CHANNELS 3 Xrotation Yrotation Zrotation
				JOINT Neck
				{
					OFFSET 0.000000 18.430702 -3.123100
					CHANNELS 3 Xrotation Yrotation Zrotation
					JOINT Head
					{
						OFFSET 0.000000 9.051102 1.034000
						CHANNELS 3 Xrotation Yrotation Zrotation
						JOINT HairB
						{
							OFFSET 0.208400 24.786102 24.822300
							CHANNELS 3 Xrotation Yrotation Zrotation
							End Site
							{
								OFFSET 0.000000 32.263779 0.000000
							}
						}
						JOINT HairA
						{
							OFFSET -7.081100 24.428299 23.196600
							CHANNELS 3 Xrotation Yrotation Zrotation
							End Site
							{
								OFFSET 0.000000 32.263779 0.000000
							}
						}
						JOINT Hat
						{
							OFFSET 16.728800 15.048294 -15.439601
							CHANNELS 3 Xrotation Yrotation Zrotation
							End Site
							{
								OFFSET 0.000000 32.263779 0.000000
							}
						}
					}
				}
				JOINT LeftShoulder
				{
					OFFSET 6.197800 13.665199 -4.064700
					CHANNELS 3 Xrotation Yrotation Zrotation
					JOINT LeftArm
					{
						OFFSET 7.778100 -0.187103 -1.709300
						CHANNELS 3 Xrotation Yrotation Zrotation
						JOINT LeftForeArm
						{
							OFFSET 22.049376 0.000000 0.000000
							CHANNELS 3 Xrotation Yrotation Zrotation
							JOINT LeftHand
							{
								OFFSET 23.009392 0.000000 0.000000
								CHANNELS 3 Xrotation Yrotation Zrotation
								JOINT LeftHandThumb1
								{
									OFFSET 3.507191 -2.063065 3.133727
									CHANNELS 3 Xrotation Yrotation Zrotation
									JOINT LeftHandThumb2
									{
										OFFSET 3.101337 -1.790558 1.790558
										CHANNELS 3 Xrotation Yrotation Zrotation
										JOINT LeftHandThumb3
										{
											OFFSET 3.058640 -1.765907 1.765906
											CHANNELS 3 Xrotation Yrotation Zrotation
											End Site
											{
												OFFSET -0.415260 3.926476 -0.049563
											}
										}
									}
								}
								JOINT LeftHandIndex1
								{
									OFFSET 11.334419 -0.901459 3.706815
									CHANNELS 3 Xrotation Yrotation Zrotation
									JOINT LeftHandIndex2
									{
										OFFSET 3.283112 0.000000 0.000000
										CHANNELS 3 Xrotation Yrotation Zrotation
										JOINT LeftHandIndex3
										{
											OFFSET 3.323853 0.000000 0.000000
											CHANNELS 3 Xrotation Yrotation Zrotation
											End Site
											{
												OFFSET -1.135597 3.097809 0.402452
											}
										}
									}
								}
								JOINT LeftHandMiddle1
								{
									OFFSET 11.335861 0.000000 0.000000
									CHANNELS 3 Xrotation Yrotation Zrotation
									JOINT LeftHandMiddle2
									{
										OFFSET 3.410492 0.000000 0.000000
										CHANNELS 3 Xrotation Yrotation Zrotation
										JOINT LeftHandMiddle3
										{
											OFFSET 3.312172 0.000000 0.000000
											CHANNELS 3 Xrotation Yrotation Zrotation
											End Site
											{
												OFFSET -1.150200 3.080154 0.400270
											}
										}
									}
								}
								JOINT LeftHandRing1
								{
									OFFSET 11.514786 -0.013176 -3.003090
									CHANNELS 3 Xrotation Yrotation Zrotation
									JOINT LeftHandRing2
									{
										OFFSET 3.053307 0.000000 0.000000
										CHANNELS 3 Xrotation Yrotation Zrotation
										JOINT LeftHandRing3
										{
											OFFSET 3.295807 0.000000 0.000000
											CHANNELS 3 Xrotation Yrotation Zrotation
											End Site
											{
												OFFSET -1.281006 3.013344 0.375733
											}
										}
									}
								}
								JOINT LeftHandPinky1
								{
									OFFSET 10.518692 -0.960396 -5.730441
									CHANNELS 3 Xrotation Yrotation Zrotation
									JOINT LeftHandPinky2
									{
										OFFSET 2.861649 0.000000 0.000000
										CHANNELS 3 Xrotation Yrotation Zrotation
										JOINT LeftHandPinky3
										{
											OFFSET 2.863380 0.000000 0.000000
											CHANNELS 3 Xrotation Yrotation Zrotation
											End Site
											{
												OFFSET -0.843597 2.711159 0.369971
											}
										}
									}
								}
							}
							JOINT LSleeve
							{
								OFFSET 6.676277 -0.344902 -1.011730
								CHANNELS 3 Xrotation Yrotation Zrotation
								End Site
								{
									OFFSET 0.000000 14.885353 0.000000
								}
							}
						}
					}
				}
				JOINT RightShoulder
				{
					OFFSET -6.197800 13.665199 -4.064700
					CHANNELS 3 Xrotation Yrotation Zrotation
					JOINT RightArm
					{
						OFFSET -7.778100 -0.187103 -1.709300
						CHANNELS 3 Xrotation Yrotation Zrotation
						JOINT RightForeArm
						{
							OFFSET -22.049376 0.000000 0.000000
							CHANNELS 3 Xrotation Yrotation Zrotation
							JOINT RightHand
							{
								OFFSET -23.009392 0.000000 0.000000
								CHANNELS 3 Xrotation Yrotation Zrotation
								JOINT RightHandThumb1
								{
									OFFSET -3.507191 -2.063065 3.133727
									CHANNELS 3 Xrotation Yrotation Zrotation
									JOINT RightHandThumb2
									{
										OFFSET -3.101337 -1.790558 1.790558
										CHANNELS 3 Xrotation Yrotation Zrotation
										JOINT RightHandThumb3
										{
											OFFSET -3.058640 -1.765907 1.765906
											CHANNELS 3 Xrotation Yrotation Zrotation
											End Site
											{
												OFFSET 0.415260 3.926476 -0.049563
											}
										}
									}
								}
								JOINT RightHandIndex1
								{
									OFFSET -11.334419 -0.901459 3.706815
									CHANNELS 3 Xrotation Yrotation Zrotation
									JOINT RightHandIndex2
									{
										OFFSET -3.283112 0.000000 0.000000
										CHANNELS 3 Xrotation Yrotation Zrotation
										JOINT RightHandIndex3
										{
											OFFSET -3.323853 0.000000 0.000000
											CHANNELS 3 Xrotation Yrotation Zrotation
											End Site
											{
												OFFSET 1.135597 3.097809 0.402452
											}
										}
									}
								}
								JOINT RightHandMiddle1
								{
									OFFSET -11.335861 0.000000 0.000000
									CHANNELS 3 Xrotation Yrotation Zrotation
									JOINT RightHandMiddle2
									{
										OFFSET -3.410492 0.000000 0.000000
										CHANNELS 3 Xrotation Yrotation Zrotation
										JOINT RightHandMiddle3
										{
											OFFSET -3.312172 0.000000 0.000000
											CHANNELS 3 Xrotation Yrotation Zrotation
											End Site
											{
												OFFSET 1.150200 3.080154 0.400270
											}
										}
									}
								}
								JOINT RightHandRing1
								{
									OFFSET -11.514786 -0.013176 -3.003090
									CHANNELS 3 Xrotation Yrotation Zrotation
									JOINT RightHandRing2
									{
										OFFSET -3.053307 0.000000 0.000000
										CHANNELS 3 Xrotation Yrotation Zrotation
										JOINT RightHandRing3
										{
											OFFSET -3.295807 0.000000 0.000000
											CHANNELS 3 Xrotation Yrotation Zrotation
											End Site
											{
												OFFSET 1.281006 3.013344 0.375733
											}
										}
									}
								}
								JOINT RightHandPinky1
								{
									OFFSET -10.518692 -0.960396 -5.730441
									CHANNELS 3 Xrotation Yrotation Zrotation
									JOINT RightHandPinky2
									{
										OFFSET -2.861649 0.000000 0.000000
										CHANNELS 3 Xrotation Yrotation Zrotation
										JOINT RightHandPinky3
										{
											OFFSET -2.863380 0.000000 0.000000
											CHANNELS 3 Xrotation Yrotation Zrotation
											End Site
											{
												OFFSET 0.843597 2.711159 0.369971
											}
										}
									}
								}
							}
							JOINT RSleeve
							{
								OFFSET -6.676277 -0.344902 -1.011730
								CHANNELS 3 Xrotation Yrotation Zrotation
								End Site
								{
									OFFSET 0.000000 14.885353 0.000000
								}
							}
						}
					}
				}
				JOINT Backpack
				{
					OFFSET 0.000000 -2.471497 36.677502
					CHANNELS 3 Xrotation Yrotation Zrotation
					End Site
					{
						OFFSET 0.000000 20.427315 0.000000
					}
				}
				JOINT Hood
				{
					OFFSET 0.000000 18.754097 -10.431000
					CHANNELS 3 Xrotation Yrotation Zrotation
					JOINT Hood1
					{
						OFFSET 0.000000 -5.011002 -7.685901
						CHANNELS 3 Xrotation Yrotation Zrotation
						End Site
						{
							OFFSET 0.000000 9.175140 0.000000
						}
					}
				}
				JOINT LHoodieString
				{
					OFFSET 5.250500 16.397697 3.089900
					CHANNELS 3 Xrotation Yrotation Zrotation
					JOINT LHoodieString1
					{
						OFFSET 0.257700 -6.364304 3.694600
						CHANNELS 3 Xrotation Yrotation Zrotation
						JOINT LHoodieString2
						{
							OFFSET 0.000000 -9.643799 2.679100
							CHANNELS 3 Xrotation Yrotation Zrotation
							End Site
							{
								OFFSET 0.000000 10.009018 0.000000
							}
						}
					}
				}
				JOINT RHoodieString
				{
					OFFSET -5.250500 16.397697 3.089900
					CHANNELS 3 Xrotation Yrotation Zrotation
					JOINT RHoodieString1
					{
						OFFSET -0.257700 -6.364304 3.694600
						CHANNELS 3 Xrotation Yrotation Zrotation
						JOINT RHoodieString2
						{
							OFFSET 0.000000 -9.643799 2.679100
							CHANNELS 3 Xrotation Yrotation Zrotation
							End Site
							{
								OFFSET 0.000000 10.009018 0.000000
							}
						}
					}
				}
			}
			JOINT LBackpack_Strap
			{
				OFFSET 15.223200 -7.719803 -6.610900
				CHANNELS 3 Xrotation Yrotation Zrotation
				End Site
				{
					OFFSET 0.000000 16.040596 0.000000
				}
			}
			JOINT RBackpack_Strap
			{
				OFFSET -15.223000 -7.719803 -6.610900
				CHANNELS 3 Xrotation Yrotation Zrotation
				End Site
				{
					OFFSET 0.000000 16.040596 0.000000
				}
			}
		}
	}
	JOINT BoyFacialAnim_Joint
	{
		OFFSET 1.000000 -82.208099 -1.550900
		CHANNELS 3 Xrotation Yrotation Zrotation
		End Site
		{
			OFFSET 0.000000 30.012791 0.000000
		}
	}
}
MOTION
Frames: 4
Frame Time: 0.033333
13.173534 64.050377 -2.966800 116.170262 -62.289891 121.264504 -0.000001 0.000002 -0.000001 -65.584002 -50.921704 28.289406 49.825223 -4.513032 -34.055733 2.402473 10.912284 -26.120515 0.000000 0.000000 0.000000 0.000000 0.000000 0.000000 0.000000 0.000002 0.000002 -73.571526 -5.756305 -8.442996 85.263581 -1.296345 -1.298410 -37.200502 -7.665251 -2.800460 0.000000 0.000002 0.000000 0.000000 0.000002 0.000000 0.000000 -0.000002 0.000002 9.406194 -0.487490 2.790380 3.631808 -3.547306 -3.688910 2.927581 -3.276757 -4.184300 -2.961745 6.674568 8.160997 -18.618674 14.384915 -4.442113 -0.000001 0.000000 -0.000000 -0.000001 0.000000 -0.000000 -0.000001 0.000000 -0.000000 1.385726 -22.597681 -2.658260 -16.048168 -16.815111 -6.624549 -0.173962 -58.801365 -0.223073 -20.840044 -8.038795 2.779662 2.088571 -8.345629 8.780234 2.051594 22.227182 -1.496688 -0.000005 0.000000 -0.000000 13.464927 -0.605197 11.429883 -0.163052 0.302876 -31.240490 0.000001 -0.000001 -0.000000 8.352165 -0.952099 1.838397 0.223085 0.653592 -28.308834 0.000004 0.000001 0.000001 5.979333 2.639615 -12.334076 0.038062 0.304907 -26.890766 -0.000001 0.000003 -0.000003 -5.452575 7.367746 -8.228098 0.205677 0.259594 -41.829113 -0.000001 0.000002 -0.000002 -0.000001 0.000001 0.000000 1.326157 3.477654 3.718607 -68.774882 -36.610716 10.845820 36.091358 116.436830 -36.483377 -9.194424 12.026905 -16.357156 3.430233 10.445002 -11.189542 0.737080 -18.669390 2.850828 -0.000000 -0.000001 0.000001 19.232547 10.641227 -12.140188 -0.113773 -0.323413 20.540759 -0.000002 -0.000001 0.000002 4.198555 2.955474 -6.001383 0.341862 -0.467343 27.187998 0.000001 0.000000 0.000003 -6.877423 -10.364458 3.239241 0.105704 -0.083472 24.444955 -0.000001 0.000001 0.000002 -19.131623 -20.004890 1.684365 0.211430 -0.073689 33.386518 0.000003 -0.000002 -0.000002 0.000001 0.000000 -0.000004 -0.000003 -0.000001 0.000001 -0.000003 -0.000001 0.000001 -0.000003 -0.000001 0.000001 -0.000003 -0.000001 0.000001 -0.000003 -0.000001 0.000001 -0.000003 0.000000 0.000000 -0.000003 -0.000001 0.000001 -0.000003 -0.000001 0.000001 -0.000003 0.000000 0.000000 -0.000000 0.000000 0.000001 -0.000000 0.000000 0.000001 -0.000001 0.000002 -0.000001 
12.091228 63.325340 -2.959896 117.987502 -62.077889 123.436490 0.000001 0.000002 -0.000001 -70.509436 -52.842329 22.257444 42.146895 -5.709649 -31.705721 2.539301 10.142026 -23.129785 -0.000000 -0.000001 -0.000000 -0.000000 -0.000001 -0.000000 -0.000001 -0.000001 0.000000 -73.126054 -4.679155 -8.355039 87.187508 -1.107954 -1.273532 -39.126168 -7.694253 -2.258949 -0.000000 0.000003 -0.000000 -0.000000 0.000003 -0.000000 -0.000004 0.000001 -0.000001 7.778629 -0.191243 3.708576 4.313988 -3.628036 -4.124659 3.502076 -3.330936 -4.740028 -3.283952 7.030607 8.445420 -19.354830 15.066281 -4.551791 -0.000001 0.000000 0.000000 -0.000001 0.000000 0.000000 -0.000001 0.000000 0.000000 1.736137 -22.398958 -2.224027 -15.578830 -16.336986 -7.343439 -0.172649 -59.947676 -0.223218 -20.431531 -8.617566 2.444432 2.088569 -8.345625 8.780234 1.836493 21.576650 -1.758116 -0.000000 0.000001 0.000005 13.455390 -0.597293 13.071302 -0.164426 0.301303 -29.512646 0.000001 -0.000002 -0.000000 8.383846 -0.970147 3.362914 0.219228 0.645063 -26.667043 0.000001 -0.000003 0.000003 5.988117 2.633532 -10.959224 0.034034 0.296726 -25.366313 0.000002 0.000004 -0.000008 -5.495221 7.384037 -7.029648 0.201656 0.254323 -40.453342 -0.000000 -0.000000 -0.000000 -0.000002 -0.000000 0.000002 1.619880 4.689618 4.304023 -70.280236 -36.413023 8.298412 40.625374 117.774373 -40.573130 -9.092706 12.570537 -17.510747 3.430232 10.444999 -11.189540 0.516812 -18.044996 3.112668 -0.000001 0.000004 -0.000000 19.278687 10.702283 -14.179535 -0.115279 -0.321404 18.292220 -0.000000 0.000001 0.000004 4.208763 2.993613 -7.774208 0.338481 -0.455506 25.146193 -0.000000 0.000002 -0.000002 -6.960348 -10.400301 1.799840 0.101997 -0.072582 22.673385 0.000001 -0.000004 0.000003 -19.246525 -20.066727 0.636628 0.208642 -0.066700 31.950979 -0.000002 -0.000002 -0.000000 -0.000003 -0.000001 -0.000007 0.000001 0.000000 -0.000000 0.000001 0.000000 -0.000000 0.000001 0.000000 -0.000000 0.000001 0.000000 -0.000000 0.000001 0.000000 -0.000000 -0.000002 -0.000001 0.000000 0.000001 0.000000 -0.000000 0.000001 0.000000 -0.000000 -0.000002 -0.000001 0.000000 0.000001 0.000000 -0.000000 0.000001 0.000000 -0.000000 0.000001 0.000002 -0.000001 
10.930250 62.533119 -2.820073 120.284440 -61.781916 126.027358 -0.000001 0.000000 -0.000001 -75.772548 -48.744533 18.389625 38.658690 -7.310667 -30.852596 7.103696 8.673081 -14.899856 -0.000000 -0.000001 -0.000000 -0.000000 -0.000001 -0.000000 -0.000003 -0.000003 0.000002 -72.595116 -3.588824 -8.451367 89.166590 -0.663836 -1.232073 -41.106701 -7.568260 -1.698272 0.000000 0.000001 -0.000000 0.000000 0.000001 -0.000000 0.000001 -0.000002 0.000001 6.581848 -0.073082 4.181434 4.839481 -3.693199 -4.335054 3.977438 -3.334095 -5.027372 -3.429669 7.427494 8.734625 -20.204287 16.177067 -4.713496 -0.000000 0.000000 0.000000 -0.000000 0.000000 0.000000 -0.000000 0.000000 0.000000 2.046275 -22.127585 -1.800596 -15.282651 -16.012270 -7.771566 -0.089628 -60.392854 -0.151418 -19.991465 -8.784359 2.441541 2.088566 -8.345625 8.780233 1.647818 21.011935 -1.986443 0.000003 -0.000002 0.000004 13.449588 -0.590412 14.595377 -0.165855 0.299909 -27.870934 -0.000001 -0.000000 -0.000004 8.412750 -0.985750 4.738783 0.216027 0.637020 -25.142647 -0.000000 -0.000002 0.000002 5.994441 2.629711 -9.764195 0.030608 0.289296 -23.990618 -0.000000 -0.000000 -0.000002 -5.535415 7.398306 -6.042659 0.198315 0.249633 -39.257639 -0.000002 0.000001 0.000002 -0.000000 0.000001 -0.000000 1.897745 5.755629 4.539204 -71.391446 -36.627197 6.684517 37.148132 116.248754 -37.484590 -8.941355 13.054068 -18.448775 3.430233 10.445002 -11.189540 0.358440 -17.600598 3.299887 0.000001 0.000002 -0.000002 19.333310 10.762285 -15.937565 -0.116691 -0.319684 16.261772 -0.000004 0.000000 -0.000002 4.215162 3.026142 -9.199764 0.336318 -0.445093 23.386221 0.000001 -0.000001 0.000001 -7.026464 -10.427120 0.775650 0.099336 -0.063684 21.248990 -0.000001 0.000002 0.000004 -19.311663 -20.100376 0.079987 0.206765 -0.061620 30.929760 0.000001 -0.000002 -0.000000 0.000001 -0.000002 0.000002 0.000002 0.000001 -0.000001 0.000002 0.000001 -0.000001 0.000002 0.000001 -0.000001 0.000002 0.000001 -0.000001 0.000002 0.000001 -0.000001 -0.000001 0.000001 -0.000000 0.000002 0.000001 -0.000001 0.000002 0.000001 -0.000001 -0.000001 0.000001 -0.000000 -0.000002 0.000000 -0.000000 -0.000002 0.000000 -0.000000 -0.000001 0.000000 -0.000001 
9.599621 61.511391 -2.550375 123.115362 -61.387206 129.221032 -0.000000 -0.000000 0.000001 -77.410338 -45.484279 17.737453 39.183996 -7.190971 -31.035328 8.749593 8.729804 -11.416366 -0.000000 0.000002 -0.000000 -0.000000 0.000002 -0.000000 -0.000000 0.000002 0.000002 -72.047356 -2.255905 -8.846768 91.599107 -0.018678 -1.173595 -43.419994 -7.211330 -0.997960 0.000000 0.000000 -0.000000 0.000000 0.000000 -0.000000 0.000001 -0.000001 0.000001 6.057047 -0.050233 4.133766 4.914771 -3.586343 -4.358835 4.047810 -3.249069 -5.066320 -3.514438 8.048025 9.033237 -20.728912 17.211481 -4.882017 -0.000001 -0.000000 -0.000000 -0.000001 -0.000000 -0.000000 -0.000001 -0.000000 -0.000000 2.005479 -21.732830 -1.715460 -14.928415 -16.206992 -8.455714 0.031517 -60.063379 -0.046407 -19.517998 -8.646487 2.711371 2.088569 -8.345624 8.780235 1.491223 20.547408 -2.175160 -0.000002 0.000000 0.000002 13.446879 -0.584278 15.970813 -0.167200 0.298472 -26.346497 -0.000003 0.000001 -0.000002 8.438120 -0.998721 5.934690 0.213375 0.629740 -23.766866 0.000000 -0.000001 0.000002 5.998675 2.627585 -8.780308 0.027703 0.282814 -22.794768 0.000001 0.000002 0.000004 -5.568779 7.409499 -5.298737 0.195672 0.245758 -38.273047 0.000000 0.000001 0.000000 0.000000 0.000001 -0.000000 1.938091 6.304786 4.576627 -71.523863 -36.835169 6.153595 37.479324 116.034177 -37.756671 -8.745705 13.458072 -19.152339 3.430235 10.445001 -11.189538 0.273928 -17.364742 3.399831 0.000000 0.000001 0.000000 19.387465 10.814913 -17.350878 -0.118004 -0.318152 14.512161 -0.000001 0.000000 0.000004 4.218824 3.050375 -10.213472 0.335065 -0.436565 21.971544 0.000000 0.000001 -0.000002 -7.063997 -10.441652 0.232203 0.097638 -0.057181 20.235911 -0.000001 0.000003 -0.000003 -19.320003 -20.104503 0.024885 0.205870 -0.058898 30.387952 -0.000002 0.000003 -0.000001 -0.000001 -0.000002 0.000002 -0.000000 -0.000000 0.000000 -0.000000 -0.000000 0.000000 -0.000000 -0.000000 0.000000 -0.000000 -0.000000 0.000000 -0.000000 -0.000000 0.000000 -0.000004 0.000001 -0.000000 -0.000000 -0.000000 0.000000 -0.000000 -0.000000 0.000000 -0.000004 0.000001 -0.000000 0.000001 0.000000 0.000001 0.000001 0.000000 0.000001 -0.000000 -0.000000 0.000001 
